<svg id="arrow-left-short" xmlns="http://www.w3.org/2000/svg" width="10.524" height="9.21" viewBox="0 0 10.524 9.21">
  <path id="Path_3751" data-name="Path 3751" d="M14.069,10.317a.658.658,0,0,1,0,.931l-3.482,3.48,3.482,3.481a.659.659,0,0,1-.931.931L9.192,15.194a.658.658,0,0,1,0-.931l3.946-3.946a.658.658,0,0,1,.931,0Z" transform="translate(-8.998 -10.123)" fill="#6833a6" fill-rule="evenodd"/>
  <path id="Path_3752" data-name="Path 3752" d="M10.125,17.533a.658.658,0,0,1,.658-.658h8.55a.658.658,0,0,1,0,1.315h-8.55A.658.658,0,0,1,10.125,17.533Z" transform="translate(-9.466 -12.928)" fill="#6833a6" fill-rule="evenodd"/>
</svg>
