<svg id="arrow-left-short" xmlns="http://www.w3.org/2000/svg" width="10.524" height="9.21" viewBox="0 0 10.524 9.21">
  <path id="Path_3751" data-name="Path 3751" d="M9.192,10.317a.658.658,0,0,0,0,.931l3.482,3.48L9.192,18.209a.659.659,0,0,0,.931.931l3.946-3.946a.658.658,0,0,0,0-.931l-3.946-3.946a.658.658,0,0,0-.931,0Z" transform="translate(-3.738 -10.123)" fill="#6833a6" fill-rule="evenodd"/>
  <path id="Path_3752" data-name="Path 3752" d="M19.99,17.533a.658.658,0,0,0-.658-.658h-8.55a.658.658,0,0,0,0,1.315h8.55A.658.658,0,0,0,19.99,17.533Z" transform="translate(-10.125 -12.928)" fill="#6833a6" fill-rule="evenodd"/>
</svg>
