<!-- Generated by IcoMoon.io -->
<svg version="1.1" xmlns="http://www.w3.org/2000/svg" width="1170" height="1024" viewBox="0 0 1170 1024">
<title></title>
<g id="icomoon-ignore">
</g>
<path fill="#fff" d="M606.395 21.57c-13.254 13.242-21.453 31.541-21.453 51.756s8.199 38.514 21.452 51.755l387.142 386.919-387.141 387.030c-11.877 12.977-19.155 30.337-19.155 49.397 0 40.466 32.804 73.27 73.27 73.27 19.059 0 36.419-7.277 49.452-19.205l-0.055 0.050 438.73-438.73c13.254-13.242 21.453-31.541 21.453-51.756s-8.199-38.514-21.452-51.755l-438.731-438.731c-13.242-13.254-31.541-21.453-51.756-21.453s-38.514 8.199-51.755 21.452l-0.001 0.001z"></path>
<path fill="#fff" d="M1096.825 512c0-40.404-32.754-73.159-73.159-73.159v0h-950.619c-39.159 1.575-70.307 33.702-70.307 73.103s31.149 71.528 70.165 73.099l0.142 0.005h950.619c0 0 0 0 0 0 40.365 0 73.095-32.691 73.159-73.041v-0.006z"></path>
</svg>
