<svg xmlns="http://www.w3.org/2000/svg" width="41.656" height="48.6" viewBox="0 0 41.656 48.6">
  <path id="file-pdf-o" d="M39.812,10.306a6.3,6.3,0,0,1,1.3,2.061,6.29,6.29,0,0,1,.543,2.387V46a2.595,2.595,0,0,1-2.6,2.6H2.6A2.508,2.508,0,0,1,.76,47.84,2.518,2.518,0,0,1,0,46V2.6A2.508,2.508,0,0,1,.76.76,2.518,2.518,0,0,1,2.6,0H26.9A6.256,6.256,0,0,1,29.29.543a6.329,6.329,0,0,1,2.061,1.3ZM27.77,3.688v10.2h10.2a2.964,2.964,0,0,0-.6-1.112L28.882,4.285a2.963,2.963,0,0,0-1.112-.6ZM38.184,45.127V17.356H26.9a2.595,2.595,0,0,1-2.6-2.6V3.471H3.471V45.127H38.184ZM24.244,29.044a20.7,20.7,0,0,0,2.279,1.519,26.83,26.83,0,0,1,3.172-.19q3.986,0,4.8,1.328a1.313,1.313,0,0,1,.054,1.411.078.078,0,0,1-.027.054l-.054.054v.027q-.163,1.03-1.925,1.03a11.182,11.182,0,0,1-3.118-.543A19.8,19.8,0,0,1,25.9,32.3a48.837,48.837,0,0,0-10.631,2.25q-4.15,7.1-6.564,7.1a1.579,1.579,0,0,1-.76-.19l-.651-.325q-.027-.027-.163-.135a1.121,1.121,0,0,1-.163-.976,5.887,5.887,0,0,1,1.519-2.481,13.131,13.131,0,0,1,3.58-2.618.4.4,0,0,1,.624.163.156.156,0,0,1,.054.108q1.411-2.306,2.9-5.343a41.373,41.373,0,0,0,2.82-7.1,21.953,21.953,0,0,1-.828-4.325,10.43,10.43,0,0,1,.18-3.455q.3-1.085,1.139-1.085h.6a1.144,1.144,0,0,1,.949.406,2.164,2.164,0,0,1,.244,1.844.587.587,0,0,1-.108.217.708.708,0,0,1,.027.217v.814a35.5,35.5,0,0,1-.379,5.207,13.716,13.716,0,0,0,3.959,6.454ZM8.624,40.191q1.411-.651,3.715-4.285a15.452,15.452,0,0,0-2.373,2.279,9.006,9.006,0,0,0-1.342,2.007Zm10.794-24.95a8.073,8.073,0,0,0-.054,3.58q.027-.19.19-1.193,0-.081.19-1.166a.621.621,0,0,1,.108-.217.078.078,0,0,1-.027-.054.207.207,0,0,1-.027-.081,1.56,1.56,0,0,0-.352-.976.078.078,0,0,1-.027.054v.054ZM16.055,33.167a39.739,39.739,0,0,1,7.7-2.2,4.1,4.1,0,0,1-.352-.258,4.873,4.873,0,0,1-.433-.366,14.355,14.355,0,0,1-3.444-4.773,36.181,36.181,0,0,1-2.25,5.343q-.814,1.519-1.22,2.25Zm17.52-.433q-.651-.651-3.8-.651a10.252,10.252,0,0,0,3.363.76,2.653,2.653,0,0,0,.489-.027q0-.027-.054-.081Z" fill="#a81e96"/>
</svg>
