<svg xmlns="http://www.w3.org/2000/svg" width="822" height="264" viewBox="0 0 822 264">
  <g id="Group_3043" data-name="Group 3043" transform="translate(-932 -250)">
    <g id="Group_3038" data-name="Group 3038" transform="translate(0 5)">
      <g id="Group_3037" data-name="Group 3037">
        <g id="Group_3035" data-name="Group 3035" transform="translate(1490 152)">
          <g id="arrow-left-short" transform="translate(213.001 273.876)">
            <path id="Path_3751" data-name="Path 3751" d="M17.672,10.454a1.125,1.125,0,0,1,0,1.593L11.716,18l5.956,5.954a1.126,1.126,0,0,1-1.593,1.593L9.329,18.8a1.125,1.125,0,0,1,0-1.593l6.75-6.75a1.125,1.125,0,0,1,1.593,0Z" fill="#feffff" fill-rule="evenodd"/>
            <path id="Path_3752" data-name="Path 3752" d="M10.125,18a1.125,1.125,0,0,1,1.125-1.125H25.875a1.125,1.125,0,0,1,0,2.25H11.25A1.125,1.125,0,0,1,10.125,18Z" fill="#feffff" fill-rule="evenodd"/>
          </g>
          <g id="Ellipse_377" data-name="Ellipse 377" transform="translate(199 259)" fill="none" stroke="#fff" stroke-width="1">
            <circle cx="32.5" cy="32.5" r="32.5" stroke="none"/>
            <circle cx="32.5" cy="32.5" r="32" fill="none"/>
          </g>
        </g>
        <g id="Group_3036" data-name="Group 3036" transform="translate(1689 255)">
          <g id="arrow-left-short-2" data-name="arrow-left-short" transform="translate(23.999 25)">
            <path id="Path_3751-2" data-name="Path 3751" d="M9.329,10.454a1.125,1.125,0,0,0,0,1.593L15.285,18,9.329,23.954a1.126,1.126,0,0,0,1.593,1.593l6.75-6.75a1.125,1.125,0,0,0,0-1.593l-6.75-6.75a1.125,1.125,0,0,0-1.593,0Z" transform="translate(-0.001 -10.123)" fill="#feffff" fill-rule="evenodd"/>
            <path id="Path_3752-2" data-name="Path 3752" d="M27,18a1.125,1.125,0,0,0-1.125-1.125H11.25a1.125,1.125,0,0,0,0,2.25H25.875A1.125,1.125,0,0,0,27,18Z" transform="translate(-10.125 -10.123)" fill="#feffff" fill-rule="evenodd"/>
          </g>
          <g id="Ellipse_377-2" data-name="Ellipse 377" fill="none" stroke="#fff" stroke-width="1">
            <circle cx="32.5" cy="32.5" r="32.5" stroke="none"/>
            <circle cx="32.5" cy="32.5" r="32" fill="none"/>
          </g>
        </g>
      </g>
      <line id="Line_61" data-name="Line 61" y2="62" transform="translate(1721.5 334.5)" fill="none" stroke="#fff" stroke-width="1" opacity="0.6"/>
    </g>
    <g id="Group_3039" data-name="Group 3039" transform="translate(-11 51)">
      <text id="ديسمبر_2021" data-name="ديسمبر 2021" transform="translate(1636 390)" fill="#feffff" font-size="20" font-family="GESSTextMedium-Medium, GE SS" font-weight="500"><tspan x="-99" y="0">2021</tspan><tspan y="0">ديسمبر </tspan></text>
      <text id="_30" data-name="30" transform="translate(1635.5 340)" fill="none" stroke="#fff" stroke-width="1" font-size="107" font-family="GESSTextBold-Bold, GE SS" font-weight="700"><tspan x="-97" y="0">30</tspan></text>
    </g>
    <g id="Group_3042" data-name="Group 3042" transform="translate(0 -7)">
      <text id="وزير_البترول_يتابع_خطط_شركات_الإنتاج_بمنطقة_الصحراء_الغربية" data-name="وزير البترول يتابع خطط شركات الإنتاج بمنطقة الصحراء الغربية" transform="translate(932 304)" fill="#feffff" font-size="35" font-family="GESSTextMedium-Medium, GE SS" font-weight="500"><tspan x="24" y="32">وزير البترول يتابع خطط شركات الإنتاج</tspan><tspan y="32"> </tspan><tspan x="212" y="79">بمنطقة الصحراء الغربية</tspan></text>
      <g id="Group_3040" data-name="Group 3040" transform="translate(24.964 31.2)">
        <g id="Rectangle_2098" data-name="Rectangle 2098" transform="translate(1343.036 225.8)" fill="none" stroke="#fff" stroke-width="1">
          <rect width="112" height="37" rx="18.5" stroke="none"/>
          <rect x="0.5" y="0.5" width="111" height="36" rx="18" fill="none"/>
        </g>
        <text id="أخبار" transform="translate(1411.036 247.8)" fill="#feffff" font-size="15" font-family="GESSTextLight-Light, GE SS" font-weight="300"><tspan x="-25" y="0">أخبار</tspan></text>
      </g>
      <text id="_أكد_المهندس_طارق_الملا_وزير_البترول_والثروة_المعدنية_أن_الفترة_الحالية_تتطلب_المزيد_من_الجهود_والحلول_الابتكارية_لزيادة_الإنتاج_من_الثروة_البترولية_في_ظل_الأسعار_العالمية_الحالية_" data-name=" أكد المهندس طارق الملا وزير البترول والثروة المعدنية، أن الفترة الحالية تتطلب المزيد من
 الجهود والحلول الابتكارية لزيادة الإنتاج من الثروة البترولية في ظل الأسعار العالمية الحالية
" transform="translate(1480 426)" fill="#feffff" font-size="16" font-family="GESSTextLight-Light, GE SS" font-weight="300"><tspan x="-533" y="0"> </tspan><tspan y="0">أكد المهندس طارق الملا وزير البترول والثروة المعدنية، أن الفترة الحالية تتطلب المزيد من</tspan><tspan y="0"></tspan><tspan x="-531" y="22"> </tspan><tspan y="22">الجهود والحلول الابتكارية لزيادة الإنتاج من الثروة البترولية في ظل الأسعار العالمية الحالية</tspan><tspan y="22"></tspan><tspan x="0" y="44"></tspan></text>
      <g id="Group_3223" data-name="Group 3223" transform="translate(-218 -9)">
        <text id="كل_الأخبار" data-name="كل الأخبار" transform="translate(1443 512)" fill="#feffff" font-size="16" font-family="GESSTextLight-Light, GE SS" font-weight="300"><tspan x="-57" y="0">كل الأخبار</tspan></text>
        <g id="Iconly_Light-Outline_Arrow---Left" data-name="Iconly/Light-Outline/Arrow---Left" transform="translate(1357 495.726)">
          <g id="Arrow---Left" transform="translate(20 5.5) rotate(90)">
            <path id="Combined-Shape" d="M6.774,0a.75.75,0,0,1,.743.648l.007.1V13.934l4.744-4.763a.75.75,0,0,1,1.135.974l-.072.084-6.024,6.05a.751.751,0,0,1-.124.1l-.041.024-.037.02-.056.024-.043.016-.056.016-.04.008-.06.008-.046,0H6.745l-.044,0,.073,0a.753.753,0,0,1-.139-.013L6.6,16.48c-.023-.005-.044-.011-.066-.019L6.5,16.45c-.023-.009-.044-.018-.065-.029l-.03-.016-.048-.029-.033-.024-.009-.007a.75.75,0,0,1-.075-.066h0L.218,10.229A.75.75,0,0,1,1.2,9.1l.084.073,4.743,4.761V.75A.75.75,0,0,1,6.774,0Z" fill="#feffff"/>
          </g>
        </g>
      </g>
      <g id="Group_3224" data-name="Group 3224" transform="translate(-358.784 -2195)">
        <g id="Rectangle_2120" data-name="Rectangle 2120" transform="translate(1606.784 2672)" fill="none" stroke="#fff" stroke-width="1">
          <rect width="232" height="44" rx="7" stroke="none"/>
          <rect x="0.5" y="0.5" width="231" height="43" rx="6.5" fill="none"/>
        </g>
        <text id="معرفة_المزيد" data-name="معرفة المزيد" transform="translate(1766.784 2699)" fill="#feffff" font-size="18" font-family="GESSTextLight-Light, GE SS" font-weight="300"><tspan x="-87" y="0">معرفة المزيد</tspan></text>
      </g>
    </g>
  </g>
</svg>
