<svg id="Group_3190" data-name="Group 3190" xmlns="http://www.w3.org/2000/svg" width="842.25" height="38" viewBox="0 0 842.25 38">
  <text id="اسعار_العملات" data-name="اسعار العملات" transform="translate(842.25 25)" font-size="24" font-family="GESSTextLight-Light, GE SS" font-weight="300"><tspan x="-124" y="0">اسعار العملات</tspan></text>
  <g id="Group_3174" data-name="Group 3174">
    <g id="arrow-left-short" transform="translate(13.446 14.615)">
      <path id="Path_3751" data-name="Path 3751" d="M14.069,10.317a.658.658,0,0,1,0,.931l-3.482,3.48,3.482,3.481a.659.659,0,0,1-.931.931L9.192,15.194a.658.658,0,0,1,0-.931l3.946-3.946a.658.658,0,0,1,.931,0Z" transform="translate(-8.998 -10.123)" fill="#6833a6" fill-rule="evenodd"/>
      <path id="Path_3752" data-name="Path 3752" d="M10.125,17.533a.658.658,0,0,1,.658-.658h8.55a.658.658,0,0,1,0,1.315h-8.55A.658.658,0,0,1,10.125,17.533Z" transform="translate(-9.466 -12.928)" fill="#6833a6" fill-rule="evenodd"/>
    </g>
    <g id="Ellipse_377" data-name="Ellipse 377" fill="none" stroke="#5e0c96" stroke-width="1">
      <circle cx="19" cy="19" r="19" stroke="none"/>
      <circle cx="19" cy="19" r="18.5" fill="none"/>
    </g>
  </g>
  <g id="Group_3175" data-name="Group 3175" transform="translate(98)" opacity="0.61">
    <g id="arrow-left-short-2" data-name="arrow-left-short" transform="translate(14.03 14.615)">
      <path id="Path_3751-2" data-name="Path 3751" d="M9.192,10.317a.658.658,0,0,0,0,.931l3.482,3.48L9.192,18.209a.659.659,0,0,0,.931.931l3.946-3.946a.658.658,0,0,0,0-.931l-3.946-3.946a.658.658,0,0,0-.931,0Z" transform="translate(-3.738 -10.123)" fill="#6833a6" fill-rule="evenodd"/>
      <path id="Path_3752-2" data-name="Path 3752" d="M19.99,17.533a.658.658,0,0,0-.658-.658h-8.55a.658.658,0,0,0,0,1.315h8.55A.658.658,0,0,0,19.99,17.533Z" transform="translate(-10.125 -12.928)" fill="#6833a6" fill-rule="evenodd"/>
    </g>
    <g id="Ellipse_377-2" data-name="Ellipse 377" fill="none" stroke="#5e0c96" stroke-width="1">
      <circle cx="19" cy="19" r="19" stroke="none"/>
      <circle cx="19" cy="19" r="18.5" fill="none"/>
    </g>
  </g>
  <line id="Line_81" data-name="Line 81" x2="41" transform="translate(47.5 19.5)" fill="none" stroke="rgba(80,37,156,0.43)" stroke-width="0.5"/>
</svg>
