<svg xmlns="http://www.w3.org/2000/svg" width="549" height="117.774" viewBox="0 0 549 117.774">
  <g id="Group_3179" data-name="Group 3179" transform="translate(0 0.463)">
    <text id="برتوكول_للاستفادة_من_خدمات_الشبكة_الوطنية_الموحدة_للطوارئ_في_انشطة_وزارة_البترول_والثروة_المعدنية" data-name="برتوكول للاستفادة من خدمات الشبكة الوطنية الموحدة للطوارئ في انشطة وزارة البترول والثروة المعدنية" transform="translate(0 38.772)" fill="#feffff" font-size="16" font-family="GESSTextMedium-Medium, GE SS" font-weight="500"><tspan x="37" y="15">برتوكول للاستفادة من خدمات الشبكة الوطنية الموحدة للطوارئ في انشطة وزارة</tspan><tspan y="15"> </tspan><tspan x="390" y="37">البترول والثروة المعدنية</tspan></text>
    <g id="Group_3177" data-name="Group 3177" transform="translate(471.178 0)">
      <rect id="Rectangle_2104" data-name="Rectangle 2104" width="78" height="25" rx="12.5" transform="translate(-0.485 -0.463)" fill="#a81e96"/>
      <text id="أجتماعات" transform="translate(38.515 16.537)" fill="#feffff" font-size="15" font-family="GESSTextLight-Light, GE SS" font-weight="300"><tspan x="-25" y="0">أجتماعات</tspan></text>
    </g>
    <g id="Group_3178" data-name="Group 3178" transform="translate(396.249 97.721)">
      <g id="Group_3062" data-name="Group 3062" transform="translate(0)">
        <text id="_الثلاثاء_1_ديسمبر_2021" data-name=" الثلاثاء, 1 ديسمبر 2021" transform="translate(105 14)" fill="#feffff" font-size="13" font-family="GESSTextLight-Light, GE SS" font-weight="300"><tspan x="-104" y="0"> </tspan><tspan y="0">الثلاثاء</tspan><tspan y="0" font-family="SegoeUI-Light, Segoe UI">,</tspan><tspan y="0"> </tspan><tspan y="0">1</tspan><tspan y="0" xml:space="preserve"> ديسمبر </tspan><tspan y="0">2021</tspan></text>
      </g>
      <g id="calendar" transform="translate(132.836 1.986)">
        <path id="Path_3768" data-name="Path 3768" d="M19.368,5.053H15.847V2.813h-1.28V5.054H6.886V2.813H5.606V5.054H2.085a.961.961,0,0,0-.96.96V19.456a.961.961,0,0,0,.96.96H19.368a.961.961,0,0,0,.96-.96V6.013a.961.961,0,0,0-.96-.96Zm-.32,14.082H2.405V6.333h3.2v1.6h1.28v-1.6h7.681v1.6h1.28v-1.6h3.2Z" transform="translate(-1.125 -2.813)" fill="#feffff"/>
        <path id="Path_3769" data-name="Path 3769" d="M7.875,15.75h1.28v1.28H7.875Z" transform="translate(-4.034 -8.389)" fill="#feffff"/>
        <path id="Path_3770" data-name="Path 3770" d="M14.063,15.75h1.28v1.28h-1.28Z" transform="translate(-6.702 -8.389)" fill="#feffff"/>
        <path id="Path_3771" data-name="Path 3771" d="M19.688,15.75h1.28v1.28h-1.28Z" transform="translate(-9.126 -8.389)" fill="#feffff"/>
        <path id="Path_3772" data-name="Path 3772" d="M25.875,15.75h1.28v1.28h-1.28Z" transform="translate(-11.793 -8.389)" fill="#feffff"/>
        <path id="Path_3773" data-name="Path 3773" d="M7.875,20.813h1.28v1.28H7.875Z" transform="translate(-4.034 -10.571)" fill="#feffff"/>
        <path id="Path_3774" data-name="Path 3774" d="M14.063,20.813h1.28v1.28h-1.28Z" transform="translate(-6.702 -10.571)" fill="#feffff"/>
        <path id="Path_3775" data-name="Path 3775" d="M19.688,20.813h1.28v1.28h-1.28Z" transform="translate(-9.126 -10.571)" fill="#feffff"/>
        <path id="Path_3776" data-name="Path 3776" d="M25.875,20.813h1.28v1.28h-1.28Z" transform="translate(-11.793 -10.571)" fill="#feffff"/>
        <path id="Path_3777" data-name="Path 3777" d="M7.875,25.875h1.28v1.28H7.875Z" transform="translate(-4.034 -12.753)" fill="#feffff"/>
        <path id="Path_3778" data-name="Path 3778" d="M14.063,25.875h1.28v1.28h-1.28Z" transform="translate(-6.702 -12.753)" fill="#feffff"/>
        <path id="Path_3779" data-name="Path 3779" d="M19.688,25.875h1.28v1.28h-1.28Z" transform="translate(-9.126 -12.753)" fill="#feffff"/>
        <path id="Path_3780" data-name="Path 3780" d="M25.875,25.875h1.28v1.28h-1.28Z" transform="translate(-11.793 -12.753)" fill="#feffff"/>
      </g>
    </g>
  </g>
</svg>
