<svg id="Group_3165" data-name="Group 3165" xmlns="http://www.w3.org/2000/svg" width="183.091" height="115.73" viewBox="0 0 183.091 115.73">
  <path id="Path_4426" data-name="Path 4426" d="M190.692,673.81s-14.282-3.84-16.977-3.557,4.082-13.17,8.6-11.529,10.531,5.956,13.971-.139,5.37-9.377,9.56-9.049,9.994-2.622,14.182,0,7.13,5.856,12.914,5.717,11.268-13.262,15.773-8.011,9.908,10.052,14.143,8.306,9.068.879,12.936,3.832,10.639,1.641,13.217-.656,4.516-3.938,9.994-3.615,22.889,4.266,29.337,9.177-8.381,11.156-15.475,11.156-8.381,1.969-14.507,4.922-16.128-1.641-23.211,3.281-16.129-2.625-28.364,0-9.672,6.232-16.765,3.615-4.513-3.615-14.83-4.266-21.6,1.641-22.566-2.625-7.408-5.25-11.279-6.563S190.692,673.81,190.692,673.81Z" transform="translate(-173.101 -582.153)" fill="#6833a6"/>
  <path id="Path_4427" data-name="Path 4427" d="M859.279,536.085l.556-.356.164-.106a5.436,5.436,0,0,1-.556-10.595l-.028,2.241,1.232-2.439h0a5.439,5.439,0,0,1,5.687,5.181v.309a6.478,6.478,0,0,0,1.073-1.585,9.313,9.313,0,0,0,.492-4.082c-.083-3.17-.22-6.365-.4-9.552a5.434,5.434,0,0,1-4.83-5.147,4.8,4.8,0,0,1,0-.492v-.122a2.961,2.961,0,0,1,.05-.47.734.734,0,0,1,0-.075c.02-.131.047-.259.078-.387a.665.665,0,0,1,.036-.142c.039-.139.081-.278.131-.412.017-.044.033-.086.053-.131.039-.1.081-.2.125-.295.022-.05.045-.1.07-.153l.019-.039h0a5.442,5.442,0,0,1,6.4-2.759l-.036,2.917,1.218-2.408a5.431,5.431,0,0,1,2.714,4.449,5.332,5.332,0,0,1-.12,1.4h0a.58.58,0,0,1-.031.114c-.008.039-.036.145-.056.214s-.053.181-.083.278-.044.133-.069.2-.081.189-.122.278c-.025.053-.047.108-.072.164-.069.139-.145.278-.225.412-.028.047-.061.092-.089.136-.058.089-.117.181-.181.278a1.078,1.078,0,0,1-.122.156c-.042.05-.12.15-.183.222s-.092.1-.139.15-.134.139-.206.206l-.142.133-.248.206-.128.1c-.131.095-.261.184-.4.278l-.078.044a3.9,3.9,0,0,1-.353.192l-.156.069c-.1.044-.2.089-.3.125l-.178.064c-.1.036-.2.067-.3.095l-.183.047c-.111.028-.225.05-.339.069h-.022q.111,2.019.2,4.035a5.434,5.434,0,0,1,7.547-2.361l-.959,2.636,1.977-1.9a5.42,5.42,0,0,1,1.757,3.754,5.337,5.337,0,0,1-.139,1.5,5.436,5.436,0,0,1-10.011,1.482v.409a10.726,10.726,0,0,1-.623,4.727,9.6,9.6,0,0,1-2,2.7c-.495.5-1.007.99-1.529,1.463a5.468,5.468,0,0,1-1.966,1.632q-1.293,1-2.675,1.866l-.481.35c-.517.323-1.048.651-1.568.993l.278-.022a5.439,5.439,0,0,1,5.353,3.54l-3.4,2.781,3.74-.868a5.447,5.447,0,0,1-7.786,4.9c.086.1.17.209.253.314l.495.617c2.225,2.8,2.828,5.461,1.732,7.489l-1.332-.72c1.065-1.974-.537-4.5-1.588-5.84-.158-.2-.323-.406-.487-.609-1.413-1.755-3.014-3.746-2.975-6.187C852.836,540.076,856.409,537.862,859.279,536.085Z" transform="translate(-718.125 -484.716)" fill="#eff2fc"/>
  <path id="Path_4428" data-name="Path 4428" d="M700.649,481.653l-.854-.534c-.083-.05-.164-.1-.245-.156a8.145,8.145,0,0,0,.834-15.867l.042,3.356-1.844-3.651h-.022a8.145,8.145,0,0,0-8.515,7.758c0,.156,0,.309,0,.462a9.735,9.735,0,0,1-1.61-2.378c-.781-1.741-.8-3.712-.734-6.118.122-4.75.328-9.535.6-14.3a8.139,8.139,0,0,0,7.23-7.706c0-.25,0-.495,0-.74v-.184c-.017-.236-.039-.47-.075-.7a.237.237,0,0,0-.019-.114c-.033-.195-.075-.386-.122-.578-.017-.072-.033-.142-.053-.214-.058-.209-.12-.412-.195-.615-.022-.067-.05-.131-.078-.2-.058-.15-.12-.295-.186-.439-.036-.078-.07-.153-.106-.228a.569.569,0,0,1-.028-.058h0A8.139,8.139,0,0,0,687.783,434a8.233,8.233,0,0,0-2.681.323l.053,4.369-1.821-3.615a8.1,8.1,0,0,0-3.893,8.776h0a.806.806,0,0,0,.044.17c.025.108.053.214.081.32s.083.278.128.4.067.2.106.3c.053.145.117.278.181.425.036.083.069.167.108.247.1.209.214.414.337.615.042.072.089.139.133.206a4.111,4.111,0,0,0,.278.4c.058.081.122.156.184.234s.181.225.278.334l.206.225q.15.158.309.309l.214.2c.12.106.245.209.373.306.064.05.125.1.192.153.192.142.389.278.6.4.039.025.081.044.12.067a5.944,5.944,0,0,0,.526.278l.236.106c.147.067.295.131.448.186.089.036.178.067.278.1.15.05.3.1.456.139l.278.072c.17.039.339.072.509.1h.033q-.172,3.02-.3,6.04a8.139,8.139,0,0,0-11.3-3.532l1.44,3.943-2.962-2.842a8.1,8.1,0,0,0-2.631,5.623,7.994,7.994,0,0,0,.206,2.244,8.139,8.139,0,0,0,14.974,2.225c0,.206,0,.411-.02.615a16.181,16.181,0,0,0,.932,7.1,14.3,14.3,0,0,0,3,4.043q1.112,1.135,2.291,2.191a8.151,8.151,0,0,0,2.939,2.447q1.947,1.488,4.01,2.781l.862.534c.773.481,1.568.976,2.347,1.488-.136,0-.278-.028-.411-.033a8.142,8.142,0,0,0-8.017,5.3l5.086,4.141-5.6-1.3a8.153,8.153,0,0,0,11.679,7.336c-.128.156-.253.311-.378.47-.25.311-.5.62-.742.926-3.312,4.2-4.232,8.175-2.594,11.212l2-1.076c-1.6-2.956.8-6.738,2.378-8.729.236-.3.481-.606.729-.912,2.116-2.628,4.513-5.609,4.449-9.263C710.3,487.631,704.948,484.325,700.649,481.653Z" transform="translate(-586.371 -433.99)" fill="#eff2fc"/>
  <path id="Path_4429" data-name="Path 4429" d="M600.315,708.757s-9.624-2.547-11.437-2.361,2.75-8.715,5.79-7.63,7.1,3.943,9.413-.092,3.615-6.207,6.443-5.99,6.732-1.738,9.555,0,4.8,3.876,8.7,3.785,7.589-8.779,10.628-5.306,6.674,6.657,9.527,5.5,6.118.581,8.718,2.536,7.166,1.087,8.9-.434a7.736,7.736,0,0,1,6.735-2.389c3.693.217,15.419,2.823,19.763,6.082s-5.648,7.383-10.425,7.383-5.648,1.3-9.774,3.259-10.859-1.087-15.636,2.172-10.859-1.738-19.112,0-6.515,4.127-11.3,2.389-3.039-2.389-9.989-2.823-14.552,1.084-15.205-1.738-5.005-3.476-7.6-4.344S600.315,708.757,600.315,708.757Z" transform="translate(-527.29 -619.058)" fill="#6833a6"/>
  <path id="Path_4430" data-name="Path 4430" d="M555.986,517.124l-3.726,11.421-.161.5-6.237,19.121-10.678,7.216-51.853-21.8,4.914-19.871.261-1.046,2.631-10.636.006-.025,15.962-2Z" transform="translate(-403.252 -457.451)" fill="#00bdc5"/>
  <path id="Path_4431" data-name="Path 4431" d="M576.25,517.124l-10.125,31.039-10.678,7.216,9.8-33.873L511.4,502.022l.006-.025,15.962-2Z" transform="translate(-423.517 -457.451)" opacity="0.1"/>
  <path id="Path_4432" data-name="Path 4432" d="M551.009,511.227l-.859-.523,8.615-.9,36.906,13.047-1.04.545-36.409-12.839Z" transform="translate(-451.491 -464.526)" opacity="0.1"/>
  <path id="Path_4433" data-name="Path 4433" d="M565.016,561.407l-10.778,5.069L501.261,545.52,501,546.566l53.024,20.656,10.831-5.317" transform="translate(-416.009 -490.313)" opacity="0.1"/>
  <ellipse id="Ellipse_410" data-name="Ellipse 410" cx="1.855" cy="2.002" rx="1.855" ry="2.002" transform="translate(87.276 52.656) rotate(-72.75)" fill="#3f3d56"/>
  <ellipse id="Ellipse_411" data-name="Ellipse 411" cx="1.855" cy="2.002" rx="1.855" ry="2.002" transform="translate(133.968 70.735) rotate(-72.75)" fill="#3f3d56"/>
  <ellipse id="Ellipse_412" data-name="Ellipse 412" cx="1.855" cy="2.002" rx="1.855" ry="2.002" transform="translate(126.589 93.188) rotate(-72.75)" fill="#3f3d56"/>
  <ellipse id="Ellipse_413" data-name="Ellipse 413" cx="1.855" cy="2.002" rx="1.855" ry="2.002" transform="translate(81.564 74.349) rotate(-72.75)" fill="#3f3d56"/>
  <path id="Path_4434" data-name="Path 4434" d="M696.691,593.554c-.111.362-1,0-2.138-.356s-2.019-.745-1.908-1.112,1.179-.556,2.314-.2S696.805,593.192,696.691,593.554Z" transform="translate(-602.493 -547.841)" fill="#3f3d56"/>
  <ellipse id="Ellipse_414" data-name="Ellipse 414" cx="0.684" cy="1.952" rx="0.684" ry="1.952" transform="translate(95.979 43.905) rotate(-72.75)" fill="#3f3d56"/>
  <path id="Path_4435" data-name="Path 4435" d="M782.855,625.383c-.111.362-1.226.028-2.308-.309s-1.924-.712-1.813-1.073,1.137-.556,2.225-.231S782.972,625.016,782.855,625.383Z" transform="translate(-664.642 -570.877)" fill="#3f3d56"/>
  <path id="Path_4436" data-name="Path 4436" d="M865.154,654.747c-.125.406-1.31.053-2.458-.3s-2.041-.765-1.916-1.171,1.224-.653,2.372-.3S865.282,654.341,865.154,654.747Z" transform="translate(-723.871 -591.957)" fill="#3f3d56"/>
  <path id="Path_4437" data-name="Path 4437" d="M889.412,651.247c-.128.406-1.31.053-2.458-.3s-2.044-.765-1.916-1.171,1.224-.653,2.372-.3S889.538,650.841,889.412,651.247Z" transform="translate(-741.384 -589.43)" fill="#3f3d56"/>
  <path id="Path_4438" data-name="Path 4438" d="M903.366,644.579c-.128.406-1.112.117-2.052-.178s-1.669-.651-1.555-1.057,1.062-.706,2.01-.412S903.491,644.173,903.366,644.579Z" transform="translate(-752.012 -584.745)" fill="#3f3d56"/>
  <path id="Path_4439" data-name="Path 4439" d="M823.01,615.778c-.1.323-1.112.025-2.074-.278s-1.732-.642-1.63-.965,1.021-.509,1.994-.208S823.107,615.453,823.01,615.778Z" transform="translate(-693.932 -564.07)" fill="#3f3d56"/>
  <ellipse id="Ellipse_415" data-name="Ellipse 415" cx="0.684" cy="1.685" rx="0.684" ry="1.685" transform="translate(104.005 43.739) rotate(-72.75)" fill="#3f3d56"/>
  <path id="Path_4440" data-name="Path 4440" d="M761.56,650.586a1.757,1.757,0,0,0-.806-2.047,1.788,1.788,0,0,0,.364-.648,8.784,8.784,0,0,1-2.963-4.332,4.585,4.585,0,0,1-3.79.382,1.757,1.757,0,0,0-1.122,1.147.5.5,0,0,1-.028.111l-.061.031a1.757,1.757,0,1,0-1.7,2.984,1.584,1.584,0,0,0,.278.061l.022.645,8.415,3.44-.056-.556A1.763,1.763,0,0,0,761.56,650.586Z" transform="translate(-644.065 -585.165)" opacity="0.1"/>
  <path id="Path_4441" data-name="Path 4441" d="M754.12,674.52a1.76,1.76,0,0,1-2,.915,1.718,1.718,0,0,1-.186.717,1.757,1.757,0,0,1-2.361.781,1.789,1.789,0,0,1-.648-.556,1.757,1.757,0,0,1-3.281-1.137,1.784,1.784,0,0,1-.556-.172,1.757,1.757,0,0,1-.781-2.358l.056-.1-.022-.064a1.738,1.738,0,0,1-.731-.186,1.766,1.766,0,0,1,1.6-3.151,1.838,1.838,0,0,1,.236.142l.462-.448,8.465,3.384-.425.362A1.757,1.757,0,0,1,754.12,674.52Z" transform="translate(-638.591 -603.577)" opacity="0.1"/>
  <path id="Path_4442" data-name="Path 4442" d="M759.81,652.043l-2.044,6.624a1.991,1.991,0,0,0,1.2,2.455h0a1.988,1.988,0,0,0,2.592-1.274l2.044-6.627a1.986,1.986,0,0,0-1.413-2.5h0A1.985,1.985,0,0,0,759.81,652.043Z" transform="translate(-649.447 -590.407)" opacity="0.1"/>
  <path id="Path_4443" data-name="Path 4443" d="M760.644,653.833l-1.855,5.94a1.78,1.78,0,0,0,1.082,2.2h0a1.782,1.782,0,0,0,2.322-1.143l1.844-5.943a1.785,1.785,0,0,0-1.268-2.258h0A1.785,1.785,0,0,0,760.644,653.833Z" transform="translate(-650.192 -591.794)" fill="#3f3d56"/>
  <path id="Path_4444" data-name="Path 4444" d="M647.955,719.691s-9.624-2.547-11.437-2.358,2.75-8.718,5.79-7.63,7.1,3.94,9.413-.094,3.615-6.2,6.443-5.987,6.732-1.738,9.555,0,4.8,3.874,8.7,3.782,7.589-8.779,10.631-5.3,6.674,6.654,9.527,5.5,6.118.581,8.715,2.536,7.169,1.084,8.9-.434a7.735,7.735,0,0,1,6.732-2.391c3.693.217,15.419,2.825,19.763,6.082s-5.645,7.386-10.425,7.386-5.645,1.3-9.772,3.256-10.862-1.085-15.639,2.172-10.859-1.735-19.112,0-6.515,4.127-11.293,2.391-3.042-2.391-9.991-2.825-14.552,1.087-15.2-1.738-4.992-3.473-7.6-4.344S647.955,719.691,647.955,719.691Z" transform="translate(-601.652 -613.47)" fill="#50259c"/>
  <path id="Path_4445" data-name="Path 4445" d="M963.248,653.579c.834-1.532-.111-3.412-1.19-4.777s-2.4-2.781-2.369-4.53c.042-2.5,2.7-3.979,4.819-5.308a23.36,23.36,0,0,0,4.327-3.479,6.286,6.286,0,0,0,1.329-1.78,7.216,7.216,0,0,0,.4-3.162q-.136-5.356-.531-10.7" transform="translate(-795.284 -568.159)" fill="none" stroke="#3f3d56" stroke-width="4"/>
  <path id="Path_4446" data-name="Path 4446" d="M991.2,609.478a3.893,3.893,0,0,0-1.947-3.2l-.873,1.73.028-2.094a3.945,3.945,0,0,0-1.287-.156,3.893,3.893,0,1,0,4.082,3.718Z" transform="translate(-812.419 -557.992)" fill="#a81e96"/>
  <path id="Path_4447" data-name="Path 4447" d="M967.281,699.388a3.893,3.893,0,1,1,.189-3.142l-2.439,1.994,2.683-.62A3.894,3.894,0,0,1,967.281,699.388Z" transform="translate(-795.458 -621.488)" fill="#a81e96"/>
  <path id="Path_4448" data-name="Path 4448" d="M968.63,666.624a3.893,3.893,0,0,1-1.235-7.655l-.019,1.607.881-1.749h0a3.893,3.893,0,0,1,4.088,3.715,3.848,3.848,0,0,1-.167,1.332A3.893,3.893,0,0,1,968.63,666.624Z" transform="translate(-798.733 -596.301)" fill="#a81e96"/>
  <path id="Path_4449" data-name="Path 4449" d="M1003.031,644a3.893,3.893,0,1,1,1.727-7.305l-.69,1.891,1.418-1.363a3.893,3.893,0,0,1,1.26,2.695,3.831,3.831,0,0,1-.1,1.076A3.893,3.893,0,0,1,1003.031,644Z" transform="translate(-823.661 -579.984)" fill="#a81e96"/>
  <path id="Path_4450" data-name="Path 4450" d="M990.725,616.065c-.9.1-1.777.378-2.681.434a2.907,2.907,0,0,1-2.466-.862,11.639,11.639,0,0,1-.723-1.271,2.78,2.78,0,0,0-.984-.926,3.893,3.893,0,1,0,7.3,2.592Q990.947,616.04,990.725,616.065Z" transform="translate(-812.467 -563.539)" opacity="0.1"/>
  <path id="Path_4451" data-name="Path 4451" d="M1002.913,649.772a3.907,3.907,0,0,1-3.712-5.562,2.883,2.883,0,0,1,.79.776,12.284,12.284,0,0,0,.776,1.29,3.188,3.188,0,0,0,2.586.906c.943-.042,1.852-.311,2.781-.4.131,0,.278-.019.395-.022A3.893,3.893,0,0,1,1002.913,649.772Z" transform="translate(-823.543 -585.753)" opacity="0.1"/>
  <path id="Path_4452" data-name="Path 4452" d="M968.837,672.615a3.893,3.893,0,0,1-3.737-5.495,3.149,3.149,0,0,1,.834.792c.3.428.492.923.834,1.318a3.626,3.626,0,0,0,2.764.968c1-.022,1.9-.259,2.856-.334a3.893,3.893,0,0,1-3.551,2.75Z" transform="translate(-798.94 -602.292)" opacity="0.1"/>
  <path id="Path_4453" data-name="Path 4453" d="M967.018,705.864a11.014,11.014,0,1,0-6.259-2.419,16.971,16.971,0,0,0,1.046,1.39,4.862,4.862,0,0,0,3.234,1.137,16.674,16.674,0,0,0,1.98-.108Z" transform="translate(-795.194 -627.964)" fill="#a81e96" opacity="0.1"/>
  <path id="Path_4454" data-name="Path 4454" d="M951.32,730.5s3.081-.095,4.01-.756,4.727-1.449,4.969-.389,4.627,5.284,1.151,5.3-8.081-.539-9.007-1.112S951.32,730.5,951.32,730.5Z" transform="translate(-789.243 -646.846)" fill="#656380"/>
  <path id="Path_4455" data-name="Path 4455" d="M961.542,738.586c-3.479.028-8.081-.556-9.007-1.112-.706-.431-.987-1.972-1.082-2.683h-.1s.195,2.486,1.112,3.059,5.528,1.132,9.007,1.112c1,0,1.349-.364,1.332-.893C962.654,738.38,962.281,738.577,961.542,738.586Z" transform="translate(-789.265 -651.145)" opacity="0.2"/>
</svg>
