<svg id="Group_3027" data-name="Group 3027" xmlns="http://www.w3.org/2000/svg" xmlns:xlink="http://www.w3.org/1999/xlink" width="221.884" height="32.378" viewBox="0 0 221.884 32.378">
  <defs>
    <linearGradient id="linear-gradient" x1="0.498" y1="1.262" x2="0.502" y2="0.288" gradientUnits="objectBoundingBox">
      <stop offset="0" stop-color="#6833a6"/>
      <stop offset="1" stop-color="#a81e96"/>
    </linearGradient>
    <linearGradient id="linear-gradient-2" x1="0.499" y1="1.266" x2="0.5" y2="0.391" xlink:href="#linear-gradient"/>
    <linearGradient id="linear-gradient-3" x1="0.469" y1="4" x2="0.513" y2="-0.991" xlink:href="#linear-gradient"/>
    <linearGradient id="linear-gradient-4" x1="0.469" y1="4.011" x2="0.513" y2="-0.981" xlink:href="#linear-gradient"/>
  </defs>
  <path id="Path_3741" data-name="Path 3741" d="M243.248,243.64H228.071a16.894,16.894,0,0,0-4.161.427,6.238,6.238,0,0,0-2.587,1.26A4.471,4.471,0,0,0,220,247.352a8.882,8.882,0,0,0-.382,2.721l-.008,2.665v7.833a1.7,1.7,0,0,1-1.7,1.7H212a6.532,6.532,0,0,0,.306-1.981v-.284l-.035-.009h.035V241.028a2.006,2.006,0,0,0-1.228-1.849l-3.458-1.457h-.007v24.553H191.565a4.521,4.521,0,0,0-4.523,4.523h34.191a5.124,5.124,0,0,0,5.127-5.126v-2.965c.661.06,1.375.094,2.162.094H238.84a25.474,25.474,0,0,0,5.375-.473,7.554,7.554,0,0,0,3.419-1.6,5.983,5.983,0,0,0,1.8-2.924,16.348,16.348,0,0,0,.518-4.453V243.64Zm0,6.208a7.46,7.46,0,0,1-.271,2.2,2.849,2.849,0,0,1-.809,1.327,3.013,3.013,0,0,1-1.394.652,9.952,9.952,0,0,1-2.025.18h-9.732a3.533,3.533,0,0,1-2.024-.495,2.029,2.029,0,0,1-.72-1.8v-1.664a2.349,2.349,0,0,1,.675-1.957,2.965,2.965,0,0,1,1.845-.517h14.456Z" transform="translate(-187.042 -234.421)" fill="url(#linear-gradient)"/>
  <path id="Path_3742" data-name="Path 3742" d="M432.176,260.927H319.807l-2.8-2.274h0l-1.477-1.2L299.97,244.808l15.158-11.736h-6.114a7.437,7.437,0,0,0-4.65,1.633l-11.424,9.159a1.649,1.649,0,0,0-.014,2.563l13.56,11.026,4.275,3.474h-19.5a1.7,1.7,0,0,1-1.7-1.7V240.449a4.512,4.512,0,0,0-4.516-4.508H282.81v24.383a5.124,5.124,0,0,0,5.126,5.126H436.7A4.521,4.521,0,0,0,432.176,260.927Z" transform="translate(-214.816 -233.072)" fill="url(#linear-gradient-2)"/>
  <path id="Path_3743" data-name="Path 3743" d="M459.663,261.022v2.492a1.588,1.588,0,0,1-1.59,1.59h-2.485a1.545,1.545,0,0,1-.511-.085h-.007a1.6,1.6,0,0,1-1.079-1.505v-2.492a1.594,1.594,0,0,1,1.6-1.59h2.485A1.588,1.588,0,0,1,459.663,261.022Z" transform="translate(-264.461 -240.717)" fill="url(#linear-gradient-3)"/>
  <path id="Path_3744" data-name="Path 3744" d="M468.793,261.022v2.492a1.588,1.588,0,0,1-1.086,1.505,1.545,1.545,0,0,1-.511.085H464.71a1.588,1.588,0,0,1-1.59-1.59v-2.492a1.588,1.588,0,0,1,1.59-1.59H467.2A1.594,1.594,0,0,1,468.793,261.022Z" transform="translate(-267.108 -240.717)" fill="url(#linear-gradient-4)"/>
</svg>
