<svg xmlns="http://www.w3.org/2000/svg" width="82" height="72.019" viewBox="0 0 82 72.019">
  <g id="Group_3181" data-name="Group 3181" transform="translate(1)">
    <g id="play-outline" transform="translate(22.351 0)">
      <path id="Path_4456" data-name="Path 4456" d="M26.075,5.654A20.422,20.422,0,1,1,5.654,26.075,20.422,20.422,0,0,1,26.075,5.654m0-3.4A23.825,23.825,0,1,0,49.9,26.075,23.825,23.825,0,0,0,26.075,2.25Z" transform="translate(-2.25 -2.25)" fill="#feffff"/>
      <path id="Path_4457" data-name="Path 4457" d="M14.077,33.947a1.7,1.7,0,0,1-1.7-1.7V11.824a1.684,1.684,0,0,1,2.535-1.464L33.63,20.57a1.7,1.7,0,0,1,0,3L14.91,33.776a1.7,1.7,0,0,1-.833.171Zm1.7-19.264v14.7L29.24,22.034Z" transform="translate(2.941 1.791)" fill="#feffff"/>
    </g>
    <g id="Group_3180" data-name="Group 3180" transform="translate(0 55.019)">
      <text id="مشاهدة_الفيديو" data-name="مشاهدة الفيديو" transform="translate(81 12)" fill="#feffff" font-size="13" font-family="GESSTextLight-Light, GE SS" font-weight="300"><tspan x="-81" y="0">مشاهدة الفيديو</tspan></text>
    </g>
  </g>
</svg>
