<svg id="Group_3198" data-name="Group 3198" xmlns="http://www.w3.org/2000/svg" width="117.206" height="40.137" viewBox="0 0 117.206 40.137">
  <g id="Layer_x0020_1" transform="translate(0 0)">
    <path id="Path_4466" data-name="Path 4466" d="M266.217,40.167a2.912,2.912,0,0,1-2.906-2.895l-.091-23.63a.471.471,0,0,1,.115-.31l6.323-7.3a.47.47,0,0,1,.354-.162l3.793-.014L278.191.26a.468.468,0,0,1,.368-.18L291.652.03a2.915,2.915,0,0,1,2.918,2.895l.132,34.226a2.91,2.91,0,0,1-2.895,2.918l-25.59.1Zm-2.056-26.352.091,23.453a1.97,1.97,0,0,0,1.965,1.958v.47l.008-.47,25.578-.1a1.968,1.968,0,0,0,1.958-1.973l-.132-34.226A1.969,1.969,0,0,0,291.664.97l-12.873.05L274.4,6.613a.47.47,0,0,1-.369.18l-3.807.015-6.068,7.007Z" transform="translate(-259.495 -0.03)" fill="#6833a6" fill-rule="evenodd"/>
    <path id="Path_4467" data-name="Path 4467" d="M264.7,756.076a.471.471,0,0,1,0-.941l30.452-.117a.471.471,0,0,1,0,.941Zm-.067-17.418a.47.47,0,0,1,0-.941l30.452-.117a.47.47,0,0,1,0,.941Z" transform="translate(-260.424 -720.253)" fill="#6833a6" fill-rule="evenodd"/>
    <path id="Path_4468" data-name="Path 4468" d="M108.278,107.345a.469.469,0,0,1-.3-.11l-2.951-2.476a.471.471,0,0,1-.057-.663l5.345-6.331a.47.47,0,0,1,.662-.057l2.912,2.443a.471.471,0,0,1,.059.662l-5.306,6.363-.361.169Zm-2.287-3,2.228,1.869,4.7-5.64-2.193-1.841Z" transform="translate(-104.857 -95.303)" fill="#6833a6" fill-rule="evenodd"/>
    <path id="Path_4469" data-name="Path 4469" d="M812.647,123.66a.471.471,0,0,1-.364-.768l3.394-4.155a.471.471,0,0,1,.362-.173l9.014-.035a2.915,2.915,0,0,1,2.918,2.895c0,.966.229,2.174-.462,2.177l-14.862.057Zm3.618-4.155-2.623,3.211,13.393-.052-.005-1.235a1.969,1.969,0,0,0-1.965-1.958l-8.8.034Z" transform="translate(-795.541 -115.743)" fill="#6833a6" fill-rule="evenodd"/>
    <path id="Path_4470" data-name="Path 4470" d="M667.349,871.442a6.391,6.391,0,1,1,6.391-6.416,6.4,6.4,0,0,1-6.391,6.416Zm0-11.842a5.451,5.451,0,0,0,0,10.9v.47l.021-.47a5.45,5.45,0,0,0-.02-10.9Z" transform="translate(-647.879 -838.466)" fill="#6833a6" fill-rule="evenodd"/>
    <path id="Path_4471" data-name="Path 4471" d="M803.007,964.327a3.134,3.134,0,0,1-3.127-3.116c-.005-1.354,1.875-3.489,2.709-4.855a.47.47,0,0,1,.8,0c.839,1.354,2.741,3.477,2.746,4.834a3.126,3.126,0,0,1-3.129,3.14Zm-.014-6.875c-.731,1.06-2.176,2.938-2.173,3.756a2.191,2.191,0,0,0,2.187,2.179v.47l.008-.47a2.185,2.185,0,0,0,2.179-2.195c0-.82-1.461-2.683-2.2-3.74Z" transform="translate(-783.534 -933.644)" fill="#6833a6" fill-rule="evenodd"/>
    <path id="Path_4472" data-name="Path 4472" d="M265.964,248.449c-.319,0-1.368-1-1.79-1.359a.47.47,0,0,1-.059-.662l3.723-4.465a.471.471,0,0,1,.664-.059l1.5,1.261a.471.471,0,0,1,.058.663l-3.736,4.453a.469.469,0,0,1-.361.168Zm-.826-1.778.769.645,3.132-3.733-.78-.655Z" transform="translate(-260.262 -236.109)" fill="#6833a6" fill-rule="evenodd"/>
    <path id="Path_4473" data-name="Path 4473" d="M213.7,346.382c-.214,0-1.276-.649-.837-1.172.371-.442.818.072,1.139.342A.471.471,0,0,1,213.7,346.382Z" transform="translate(-210.221 -336.922)" fill="#6833a6" fill-rule="evenodd"/>
    <path id="Path_4474" data-name="Path 4474" d="M271.819,277.092c-.214,0-1.276-.648-.837-1.173.371-.443.817.072,1.139.342A.471.471,0,0,1,271.819,277.092Z" transform="translate(-266.972 -269.262)" fill="#6833a6" fill-rule="evenodd"/>
    <path id="Path_4475" data-name="Path 4475" d="M329.918,207.853c-.214,0-1.276-.648-.836-1.173.371-.443.817.072,1.139.342A.471.471,0,0,1,329.918,207.853Z" transform="translate(-323.705 -201.65)" fill="#6833a6" fill-rule="evenodd"/>
  </g>
  <g id="Layer_x0020_1-2" data-name="Layer_x0020_1" transform="translate(41 0)">
    <path id="Path_4466-2" data-name="Path 4466" d="M266.217,40.167a2.912,2.912,0,0,1-2.906-2.895l-.091-23.63a.471.471,0,0,1,.115-.31l6.323-7.3a.47.47,0,0,1,.354-.162l3.793-.014L278.191.26a.468.468,0,0,1,.368-.18L291.652.03a2.915,2.915,0,0,1,2.918,2.895l.132,34.226a2.91,2.91,0,0,1-2.895,2.918l-25.59.1Zm-2.056-26.352.091,23.453a1.97,1.97,0,0,0,1.965,1.958v.47l.008-.47,25.578-.1a1.968,1.968,0,0,0,1.958-1.973l-.132-34.226A1.969,1.969,0,0,0,291.664.97l-12.873.05L274.4,6.613a.47.47,0,0,1-.369.18l-3.807.015-6.068,7.007Z" transform="translate(-259.495 -0.03)" fill="#2e65ad" fill-rule="evenodd"/>
    <path id="Path_4467-2" data-name="Path 4467" d="M264.7,756.076a.471.471,0,0,1,0-.941l30.452-.117a.471.471,0,0,1,0,.941Zm-.067-17.418a.47.47,0,0,1,0-.941l30.452-.117a.47.47,0,0,1,0,.941Z" transform="translate(-260.424 -720.253)" fill="#2e65ad" fill-rule="evenodd"/>
    <path id="Path_4468-2" data-name="Path 4468" d="M108.278,107.345a.469.469,0,0,1-.3-.11l-2.951-2.476a.471.471,0,0,1-.057-.663l5.345-6.331a.47.47,0,0,1,.662-.057l2.912,2.443a.471.471,0,0,1,.059.662l-5.306,6.363-.361.169Zm-2.287-3,2.228,1.869,4.7-5.64-2.193-1.841Z" transform="translate(-104.857 -95.303)" fill="#2e65ad" fill-rule="evenodd"/>
    <path id="Path_4469-2" data-name="Path 4469" d="M812.647,123.66a.471.471,0,0,1-.364-.768l3.394-4.155a.471.471,0,0,1,.362-.173l9.014-.035a2.915,2.915,0,0,1,2.918,2.895c0,.966.229,2.174-.462,2.177l-14.862.057Zm3.618-4.155-2.623,3.211,13.393-.052-.005-1.235a1.969,1.969,0,0,0-1.965-1.958l-8.8.034Z" transform="translate(-795.541 -115.743)" fill="#2e65ad" fill-rule="evenodd"/>
    <path id="Path_4470-2" data-name="Path 4470" d="M667.349,871.442a6.391,6.391,0,1,1,6.391-6.416,6.4,6.4,0,0,1-6.391,6.416Zm0-11.842a5.451,5.451,0,0,0,0,10.9v.47l.021-.47a5.45,5.45,0,0,0-.02-10.9Z" transform="translate(-647.879 -838.466)" fill="#2e65ad" fill-rule="evenodd"/>
    <path id="Path_4471-2" data-name="Path 4471" d="M803.007,964.327a3.134,3.134,0,0,1-3.127-3.116c-.005-1.354,1.875-3.489,2.709-4.855a.47.47,0,0,1,.8,0c.839,1.354,2.741,3.477,2.746,4.834a3.126,3.126,0,0,1-3.129,3.14Zm-.014-6.875c-.731,1.06-2.176,2.938-2.173,3.756a2.191,2.191,0,0,0,2.187,2.179v.47l.008-.47a2.185,2.185,0,0,0,2.179-2.195c0-.82-1.461-2.683-2.2-3.74Z" transform="translate(-783.534 -933.644)" fill="#2e65ad" fill-rule="evenodd"/>
    <path id="Path_4472-2" data-name="Path 4472" d="M265.964,248.449c-.319,0-1.368-1-1.79-1.359a.47.47,0,0,1-.059-.662l3.723-4.465a.471.471,0,0,1,.664-.059l1.5,1.261a.471.471,0,0,1,.058.663l-3.736,4.453a.469.469,0,0,1-.361.168Zm-.826-1.778.769.645,3.132-3.733-.78-.655Z" transform="translate(-260.262 -236.109)" fill="#2e65ad" fill-rule="evenodd"/>
    <path id="Path_4473-2" data-name="Path 4473" d="M213.7,346.382c-.214,0-1.276-.649-.837-1.172.371-.442.818.072,1.139.342A.471.471,0,0,1,213.7,346.382Z" transform="translate(-210.221 -336.922)" fill="#2e65ad" fill-rule="evenodd"/>
    <path id="Path_4474-2" data-name="Path 4474" d="M271.819,277.092c-.214,0-1.276-.648-.837-1.173.371-.443.817.072,1.139.342A.471.471,0,0,1,271.819,277.092Z" transform="translate(-266.972 -269.262)" fill="#2e65ad" fill-rule="evenodd"/>
    <path id="Path_4475-2" data-name="Path 4475" d="M329.918,207.853c-.214,0-1.276-.648-.836-1.173.371-.443.817.072,1.139.342A.471.471,0,0,1,329.918,207.853Z" transform="translate(-323.705 -201.65)" fill="#2e65ad" fill-rule="evenodd"/>
  </g>
  <g id="Layer_x0020_1-3" data-name="Layer_x0020_1" transform="translate(82 0)">
    <path id="Path_4466-3" data-name="Path 4466" d="M266.217,40.167a2.912,2.912,0,0,1-2.906-2.895l-.091-23.63a.471.471,0,0,1,.115-.31l6.323-7.3a.47.47,0,0,1,.354-.162l3.793-.014L278.191.26a.468.468,0,0,1,.368-.18L291.652.03a2.915,2.915,0,0,1,2.918,2.895l.132,34.226a2.91,2.91,0,0,1-2.895,2.918l-25.59.1Zm-2.056-26.352.091,23.453a1.97,1.97,0,0,0,1.965,1.958v.47l.008-.47,25.578-.1a1.968,1.968,0,0,0,1.958-1.973l-.132-34.226A1.969,1.969,0,0,0,291.664.97l-12.873.05L274.4,6.613a.47.47,0,0,1-.369.18l-3.807.015-6.068,7.007Z" transform="translate(-259.495 -0.03)" fill="#00bdc5" fill-rule="evenodd"/>
    <path id="Path_4467-3" data-name="Path 4467" d="M264.7,756.076a.471.471,0,0,1,0-.941l30.452-.117a.471.471,0,0,1,0,.941Zm-.067-17.418a.47.47,0,0,1,0-.941l30.452-.117a.47.47,0,0,1,0,.941Z" transform="translate(-260.424 -720.253)" fill="#00bdc5" fill-rule="evenodd"/>
    <path id="Path_4468-3" data-name="Path 4468" d="M108.278,107.345a.469.469,0,0,1-.3-.11l-2.951-2.476a.471.471,0,0,1-.057-.663l5.345-6.331a.47.47,0,0,1,.662-.057l2.912,2.443a.471.471,0,0,1,.059.662l-5.306,6.363-.361.169Zm-2.287-3,2.228,1.869,4.7-5.64-2.193-1.841Z" transform="translate(-104.857 -95.303)" fill="#00bdc5" fill-rule="evenodd"/>
    <path id="Path_4469-3" data-name="Path 4469" d="M812.647,123.66a.471.471,0,0,1-.364-.768l3.394-4.155a.471.471,0,0,1,.362-.173l9.014-.035a2.915,2.915,0,0,1,2.918,2.895c0,.966.229,2.174-.462,2.177l-14.862.057Zm3.618-4.155-2.623,3.211,13.393-.052-.005-1.235a1.969,1.969,0,0,0-1.965-1.958l-8.8.034Z" transform="translate(-795.541 -115.743)" fill="#00bdc5" fill-rule="evenodd"/>
    <path id="Path_4470-3" data-name="Path 4470" d="M667.349,871.442a6.391,6.391,0,1,1,6.391-6.416,6.4,6.4,0,0,1-6.391,6.416Zm0-11.842a5.451,5.451,0,0,0,0,10.9v.47l.021-.47a5.45,5.45,0,0,0-.02-10.9Z" transform="translate(-647.879 -838.466)" fill="#00bdc5" fill-rule="evenodd"/>
    <path id="Path_4471-3" data-name="Path 4471" d="M803.007,964.327a3.134,3.134,0,0,1-3.127-3.116c-.005-1.354,1.875-3.489,2.709-4.855a.47.47,0,0,1,.8,0c.839,1.354,2.741,3.477,2.746,4.834a3.126,3.126,0,0,1-3.129,3.14Zm-.014-6.875c-.731,1.06-2.176,2.938-2.173,3.756a2.191,2.191,0,0,0,2.187,2.179v.47l.008-.47a2.185,2.185,0,0,0,2.179-2.195c0-.82-1.461-2.683-2.2-3.74Z" transform="translate(-783.534 -933.644)" fill="#00bdc5" fill-rule="evenodd"/>
    <path id="Path_4472-3" data-name="Path 4472" d="M265.964,248.449c-.319,0-1.368-1-1.79-1.359a.47.47,0,0,1-.059-.662l3.723-4.465a.471.471,0,0,1,.664-.059l1.5,1.261a.471.471,0,0,1,.058.663l-3.736,4.453a.469.469,0,0,1-.361.168Zm-.826-1.778.769.645,3.132-3.733-.78-.655Z" transform="translate(-260.262 -236.109)" fill="#00bdc5" fill-rule="evenodd"/>
    <path id="Path_4473-3" data-name="Path 4473" d="M213.7,346.382c-.214,0-1.276-.649-.837-1.172.371-.442.818.072,1.139.342A.471.471,0,0,1,213.7,346.382Z" transform="translate(-210.221 -336.922)" fill="#00bdc5" fill-rule="evenodd"/>
    <path id="Path_4474-3" data-name="Path 4474" d="M271.819,277.092c-.214,0-1.276-.648-.837-1.173.371-.443.817.072,1.139.342A.471.471,0,0,1,271.819,277.092Z" transform="translate(-266.972 -269.262)" fill="#00bdc5" fill-rule="evenodd"/>
    <path id="Path_4475-3" data-name="Path 4475" d="M329.918,207.853c-.214,0-1.276-.648-.836-1.173.371-.443.817.072,1.139.342A.471.471,0,0,1,329.918,207.853Z" transform="translate(-323.705 -201.65)" fill="#00bdc5" fill-rule="evenodd"/>
  </g>
</svg>
