<svg xmlns="http://www.w3.org/2000/svg" xmlns:xlink="http://www.w3.org/1999/xlink" width="50.2" height="41" viewBox="0 0 50.2 41">
  <defs>
    <filter id="Ellipse_375" x="9.2" y="0" width="41" height="41" filterUnits="userSpaceOnUse">
      <feOffset dy="3" input="SourceAlpha"/>
      <feGaussianBlur stdDeviation="3" result="blur"/>
      <feFlood flood-opacity="0.161"/>
      <feComposite operator="in" in2="blur"/>
      <feComposite in="SourceGraphic"/>
    </filter>
  </defs>
  <g id="Group_3030" data-name="Group 3030" transform="translate(1.2 6)">
    <g id="bell" transform="translate(-3.45 -3.186)">
      <path id="Path_3783" data-name="Path 3783" d="M17.171,35.171A3.671,3.671,0,0,0,20.843,31.5H13.5A3.671,3.671,0,0,0,17.171,35.171Z" transform="translate(-2.071 -5.8)" fill="#50259c"/>
      <path id="Path_3784" data-name="Path 3784" d="M15.1,3.521l-1.463.3a7.347,7.347,0,0,0-5.88,7.2,39.774,39.774,0,0,1-.843,6.869A23.7,23.7,0,0,1,5.7,22.028H24.5a23.912,23.912,0,0,1-1.217-4.145,39.919,39.919,0,0,1-.842-6.869,7.347,7.347,0,0,0-5.88-7.2l-1.463-.3ZM26.518,22.029a4.671,4.671,0,0,0,1.432,1.836H2.25a4.671,4.671,0,0,0,1.432-1.836c1.652-3.3,2.24-9.4,2.24-11.014a9.182,9.182,0,0,1,7.352-9,1.836,1.836,0,1,1,3.654,0,9.183,9.183,0,0,1,7.352,9c0,1.615.587,7.71,2.24,11.014Z" transform="translate(0 0)" fill="#50259c" fill-rule="evenodd"/>
    </g>
    <g transform="matrix(1, 0, 0, 1, -1.2, -6)" filter="url(#Ellipse_375)">
      <circle id="Ellipse_375-2" data-name="Ellipse 375" cx="11.5" cy="11.5" r="11.5" transform="translate(18.2 6)" fill="#00bdc5"/>
    </g>
  </g>
</svg>
