<svg xmlns="http://www.w3.org/2000/svg" xmlns:xlink="http://www.w3.org/1999/xlink" width="1597.5" height="182.378" viewBox="0 0 1597.5 182.378">
  <defs>
    <linearGradient id="linear-gradient" x1="-1.783" y1="2.075" x2="1.202" y2="-0.164" gradientUnits="objectBoundingBox">
      <stop offset="0.316" stop-color="#5e0c96"/>
      <stop offset="0.401" stop-color="#50259c"/>
      <stop offset="0.583" stop-color="#2e65ad"/>
      <stop offset="0.807" stop-color="#00bdc5"/>
    </linearGradient>
    <linearGradient id="linear-gradient-2" x1="0.361" y1="-2.448" x2="0.576" y2="2.118" xlink:href="#linear-gradient"/>
    <linearGradient id="linear-gradient-3" x1="0.358" y1="-2.511" x2="0.573" y2="2.055" xlink:href="#linear-gradient"/>
    <linearGradient id="linear-gradient-4" x1="0.872" y1="-0.622" x2="0.131" y2="1.025" xlink:href="#linear-gradient"/>
    <linearGradient id="linear-gradient-5" x1="1.174" y1="-0.847" x2="0.117" y2="1.266" xlink:href="#linear-gradient"/>
  </defs>
  <g id="Group_3228" data-name="Group 3228" transform="translate(-156.5 -2800.878)">
    <line id="Line_85" data-name="Line 85" x2="1597.5" transform="translate(156.5 2801.128)" fill="none" stroke="rgba(80,37,156,0.43)" stroke-width="0.5"/>
    <g id="Group_3212" data-name="Group 3212" transform="translate(-19)">
      <g id="Group_3211" data-name="Group 3211" transform="translate(-610.059 80.256)">
        <text id="بوابة_تواصل_قطاع_البترول_المصرية" data-name="بوابة تواصل قطاع البترول المصرية" transform="translate(1678.559 2897)" fill="#5e0c96" font-size="14" font-family="GESSTextLight-Light, GE SS" font-weight="300" opacity="0.52"><tspan x="-180" y="0">بوابة تواصل قطاع البترول المصرية</tspan></text>
        <g id="Group_3210" data-name="Group 3210" transform="translate(111.559 -77)">
          <path id="Path_4481" data-name="Path 4481" d="M235.355,216.772a8.4,8.4,0,0,0-.915-.25q-.321-.068-.65-.111a.946.946,0,0,0-1.068.937v2.813a.953.953,0,0,0,.77.925,3.572,3.572,0,0,1,2.831,3.064c.011.093.017.188.018.285s0,.195-.006.289a3.059,3.059,0,0,1-1.47,2.435,3.32,3.32,0,0,1-.961.407,5.58,5.58,0,0,0,1.45-10.794Z" transform="translate(1257.053 2625.658)" fill="url(#linear-gradient)"/>
          <g id="Group_3209" data-name="Group 3209" transform="translate(1477.274 2842)">
            <rect id="Rectangle_2091" data-name="Rectangle 2091" width="4.664" height="4.664" rx="1.459" fill="url(#linear-gradient-2)"/>
            <rect id="Rectangle_2092" data-name="Rectangle 2092" width="4.664" height="4.664" rx="1.459" transform="translate(6.251)" fill="url(#linear-gradient-3)"/>
          </g>
          <path id="Path_4482" data-name="Path 4482" d="M220.742,216.905a5.578,5.578,0,0,1-1.448,10.792c-.163.014-.319.028-.483.028a5.567,5.567,0,0,1-2.044-.391c-.079-.028-.163-.064-.241-.1l-10.38-4.374-12.652-5.325a8.187,8.187,0,0,0-7.519.518,7.661,7.661,0,0,0-3.62,6.092c-.007.114-.014.227-.014.341a7.838,7.838,0,0,0,.262,2.194,8.122,8.122,0,0,0,2.074,3.628,8.3,8.3,0,0,0,6.084,2.5h7.057v15.669a6.718,6.718,0,0,0,4.665,6.423V232.275a4.1,4.1,0,0,0-4.045-4.124H198.4l-7.781-.007h-.17a3.7,3.7,0,0,1-2.442-1.1,3.4,3.4,0,0,1-1-2.471.824.824,0,0,1,.008-.142,2.9,2.9,0,0,1,.212-.966,3.145,3.145,0,0,1,1.732-1.718,3.407,3.407,0,0,1,2.628.043l10.9,4.587.838.355,2.926,1.235,4.665,1.967,4.529,1.9a7.96,7.96,0,0,0,7.277-.582,7.759,7.759,0,0,0,2.365-2.265,7.6,7.6,0,0,0,1.3-3.848c.014-.22.014-.447.014-.667A8.23,8.23,0,0,0,220.742,216.905Z" transform="translate(1271.665 2625.525)" fill="url(#linear-gradient-4)"/>
          <path id="Path_4483" data-name="Path 4483" d="M226.392,224.462a8.229,8.229,0,0,0-5.65-7.57,5.58,5.58,0,0,1-1.45,10.794c-.16.014-.32.022-.484.022a5.563,5.563,0,0,1-2.04-.386c-.083-.033-.165-.067-.245-.1l-10.379-4.371-12.851-5.41a7.952,7.952,0,0,0-7.28.58,7.668,7.668,0,0,0-3.663,6.114c-.006.114-.011.226-.014.339a8.047,8.047,0,0,0,2.337,5.823,8.344,8.344,0,0,0,3.281,2.058,5.58,5.58,0,0,1,.438-10.587c.133-.038.268-.071.4-.1a5.316,5.316,0,0,1,3.26.312l11.261,4.741,7.593,3.2,4.525,1.9a7.969,7.969,0,0,0,7.281-.58,7.827,7.827,0,0,0,2.366-2.263,7.664,7.664,0,0,0,1.3-3.853C226.392,224.908,226.4,224.683,226.392,224.462Z" transform="translate(1271.666 2625.538)" fill="url(#linear-gradient-5)"/>
        </g>
      </g>
      <g id="Group_3213" data-name="Group 3213" transform="translate(0.5)">
        <text id="من_نحن" data-name="من نحن" transform="translate(1093 2929)" fill="#5e0c96" font-size="16" font-family="GESSTextLight-Light, GE SS" font-weight="300"><tspan x="-47" y="0">من نحن</tspan></text>
        <text id="اتصل_بنا" data-name="اتصل بنا" transform="translate(1028 2929)" fill="#5e0c96" font-size="16" font-family="GESSTextLight-Light, GE SS" font-weight="300"><tspan x="-52" y="0">اتصل بنا</tspan></text>
        <text id="الأسئلة_الشائعة" data-name="الأسئلة الشائعة" transform="translate(958 2929)" fill="#5e0c96" font-size="16" font-family="GESSTextLight-Light, GE SS" font-weight="300"><tspan x="-93" y="0">الأسئلة الشائعة</tspan></text>
      </g>
    </g>
  </g>
</svg>
