<svg xmlns="http://www.w3.org/2000/svg" width="65" height="221" viewBox="0 0 65 221">
  <g id="Group_3038" data-name="Group 3038" transform="translate(-1689 -255)">
    <g id="Group_3037" data-name="Group 3037">
      <g id="Group_3035" data-name="Group 3035" transform="translate(1490 152)">
        <g id="arrow-left-short" transform="translate(213.001 273.876)">
          <path id="Path_3751" data-name="Path 3751" d="M17.672,10.454a1.125,1.125,0,0,1,0,1.593L11.716,18l5.956,5.954a1.126,1.126,0,0,1-1.593,1.593L9.329,18.8a1.125,1.125,0,0,1,0-1.593l6.75-6.75a1.125,1.125,0,0,1,1.593,0Z" fill="#feffff" fill-rule="evenodd"/>
          <path id="Path_3752" data-name="Path 3752" d="M10.125,18a1.125,1.125,0,0,1,1.125-1.125H25.875a1.125,1.125,0,0,1,0,2.25H11.25A1.125,1.125,0,0,1,10.125,18Z" fill="#feffff" fill-rule="evenodd"/>
        </g>
        <g id="Ellipse_377" data-name="Ellipse 377" transform="translate(199 259)" fill="none" stroke="#fff" stroke-width="1">
          <circle cx="32.5" cy="32.5" r="32.5" stroke="none"/>
          <circle cx="32.5" cy="32.5" r="32" fill="none"/>
        </g>
      </g>
      <g id="Group_3036" data-name="Group 3036" transform="translate(1689 255)">
        <g id="arrow-left-short-2" data-name="arrow-left-short" transform="translate(23.999 25)">
          <path id="Path_3751-2" data-name="Path 3751" d="M9.329,10.454a1.125,1.125,0,0,0,0,1.593L15.285,18,9.329,23.954a1.126,1.126,0,0,0,1.593,1.593l6.75-6.75a1.125,1.125,0,0,0,0-1.593l-6.75-6.75a1.125,1.125,0,0,0-1.593,0Z" transform="translate(-0.001 -10.123)" fill="#feffff" fill-rule="evenodd"/>
          <path id="Path_3752-2" data-name="Path 3752" d="M27,18a1.125,1.125,0,0,0-1.125-1.125H11.25a1.125,1.125,0,0,0,0,2.25H25.875A1.125,1.125,0,0,0,27,18Z" transform="translate(-10.125 -10.123)" fill="#feffff" fill-rule="evenodd"/>
        </g>
        <g id="Ellipse_377-2" data-name="Ellipse 377" fill="none" stroke="#fff" stroke-width="1">
          <circle cx="32.5" cy="32.5" r="32.5" stroke="none"/>
          <circle cx="32.5" cy="32.5" r="32" fill="none"/>
        </g>
      </g>
    </g>
    <line id="Line_61" data-name="Line 61" y2="62" transform="translate(1721.5 334.5)" fill="none" stroke="#fff" stroke-width="1" opacity="0.6"/>
  </g>
</svg>
