<svg xmlns="http://www.w3.org/2000/svg" xmlns:xlink="http://www.w3.org/1999/xlink" width="44.055" height="38.037" viewBox="0 0 44.055 38.037">
  <defs>
    <linearGradient id="linear-gradient" x1="0.872" y1="-0.622" x2="0.131" y2="1.025" gradientUnits="objectBoundingBox">
      <stop offset="0.316" stop-color="#5e0c96"/>
      <stop offset="0.401" stop-color="#50259c"/>
      <stop offset="0.583" stop-color="#2e65ad"/>
      <stop offset="0.807" stop-color="#00bdc5"/>
    </linearGradient>
  </defs>
  <path id="Path_3749" data-name="Path 3749" d="M220.742,216.905a5.578,5.578,0,0,1-1.448,10.792c-.163.014-.319.028-.483.028a5.567,5.567,0,0,1-2.044-.391c-.079-.028-.163-.064-.241-.1l-10.38-4.374-12.652-5.325a8.187,8.187,0,0,0-7.519.518,7.661,7.661,0,0,0-3.62,6.092c-.007.114-.014.227-.014.341a7.838,7.838,0,0,0,.262,2.194,8.122,8.122,0,0,0,2.074,3.628,8.3,8.3,0,0,0,6.084,2.5h7.057v15.669a6.718,6.718,0,0,0,4.665,6.423V232.275a4.1,4.1,0,0,0-4.045-4.124H198.4l-7.781-.007h-.17a3.7,3.7,0,0,1-2.442-1.1,3.4,3.4,0,0,1-1-2.471.824.824,0,0,1,.008-.142,2.9,2.9,0,0,1,.212-.966,3.145,3.145,0,0,1,1.732-1.718,3.407,3.407,0,0,1,2.628.043l10.9,4.587.838.355,2.926,1.235,4.665,1.967,4.529,1.9a7.96,7.96,0,0,0,7.277-.582,7.759,7.759,0,0,0,2.365-2.265,7.6,7.6,0,0,0,1.3-3.848c.014-.22.014-.447.014-.667A8.23,8.23,0,0,0,220.742,216.905Z" transform="translate(-182.338 -216.864)" fill="url(#linear-gradient)"/>
</svg>
