<svg xmlns="http://www.w3.org/2000/svg" xmlns:xlink="http://www.w3.org/1999/xlink" width="44.059" height="15.623" viewBox="0 0 44.059 15.623">
  <defs>
    <linearGradient id="linear-gradient" x1="1.174" y1="-0.847" x2="0.117" y2="1.266" gradientUnits="objectBoundingBox">
      <stop offset="0.316" stop-color="#5e0c96"/>
      <stop offset="0.401" stop-color="#50259c"/>
      <stop offset="0.583" stop-color="#2e65ad"/>
      <stop offset="0.807" stop-color="#00bdc5"/>
    </linearGradient>
  </defs>
  <path id="Path_3750" data-name="Path 3750" d="M226.392,224.462a8.229,8.229,0,0,0-5.65-7.57,5.58,5.58,0,0,1-1.45,10.794c-.16.014-.32.022-.484.022a5.563,5.563,0,0,1-2.04-.386c-.083-.033-.165-.067-.245-.1l-10.379-4.371-12.851-5.41a7.952,7.952,0,0,0-7.28.58,7.668,7.668,0,0,0-3.663,6.114c-.006.114-.011.226-.014.339a8.047,8.047,0,0,0,2.337,5.823,8.344,8.344,0,0,0,3.281,2.058,5.58,5.58,0,0,1,.438-10.587c.133-.038.268-.071.4-.1a5.316,5.316,0,0,1,3.26.312l11.261,4.741,7.593,3.2,4.525,1.9a7.969,7.969,0,0,0,7.281-.58,7.827,7.827,0,0,0,2.366-2.263,7.664,7.664,0,0,0,1.3-3.853C226.392,224.908,226.4,224.683,226.392,224.462Z" transform="translate(-182.334 -216.818)" fill="url(#linear-gradient)"/>
</svg>
